<svg width="65" height="108" viewBox="0 0 65 108" fill="none" xmlns="http://www.w3.org/2000/svg">
<g id="Group 2" filter="url(#filter0_d)">
<g id="Group">
<path id="Vector" d="M59.0539 30.1667L58.0838 29.9962L51.3342 48.61L51.3042 48.6926V48.7805V55.7153V56.0437L51.6056 56.1741L56.6298 58.3487L51.7486 58.8946L51.3669 58.9373L51.3098 59.3171L49.4202 71.8768L49.381 72.1374L49.5737 72.317L58.213 80.3667L59.0539 81.1501V80.0009V58.6367V30.1667ZM55.639 22.5611L55.1461 22.424C43.5365 19.1939 32.2116 19.1959 23.7973 20.0016C19.5883 20.4047 16.1029 21.0093 13.6678 21.5137C12.4501 21.7659 11.4947 21.9931 10.8424 22.1577C10.5163 22.24 10.2659 22.3066 10.0964 22.3528C10.0116 22.3759 9.94702 22.394 9.90331 22.4063L9.85347 22.4205L9.84042 22.4243L9.83689 22.4253L9.83587 22.4256C9.83558 22.4257 9.83536 22.4257 9.97553 22.9057L9.83536 22.4257L9.32802 22.5739L9.50409 23.0722L17.4855 45.6632L17.6033 45.9967H17.9569H49.9146H50.3323L50.4066 45.5856L50.2347 45.5545C50.4066 45.5856 50.4066 45.5856 50.4067 45.5855L50.4067 45.585L50.4071 45.5831L50.4085 45.5755L50.414 45.5449L50.4361 45.4241C50.4555 45.3178 50.4845 45.1605 50.5222 44.9573C50.5976 44.551 50.7082 43.961 50.8488 43.227C51.13 41.7589 51.5311 39.7151 52.0105 37.4127C52.9704 32.8033 54.2411 27.174 55.4906 23.0507L55.639 22.5611ZM13.77 48.7805V48.6895L13.738 48.6044L6.98581 30.6583L6.01783 30.8343V58.6388V80.6642V82.1257L6.91305 80.9705L13.6652 72.2575L13.77 72.1223V71.9512V59.3681V58.9192L13.3237 58.871L8.4556 58.3452L13.4685 56.1763L13.77 56.0458V55.7174V48.7805ZM9.95973 86.6363L9.40614 87.4238H10.3688H55.4029H56.4227L55.7982 86.6176L47.4359 75.8228L47.2858 75.629H47.0406H17.9569H17.6972L17.5479 75.8415L9.95973 86.6363ZM17.9569 0.5H47.0406C50.7305 0.5 54.0943 2.26564 56.5452 4.85774C58.9996 7.45346 60.4976 10.8351 60.5 13.9994V87.9997C60.5 94.2826 54.545 99.5 47.0406 99.5H17.9569C10.4503 99.5 4.5 94.2807 4.5 87.9997V55.7174V13.999C4.5 10.8349 5.99675 7.45338 8.45079 4.85772C10.9014 2.26569 14.2657 0.5 17.9569 0.5Z" fill="black" stroke="black"/>
</g>
</g>
<defs>
<filter id="filter0_d" x="0" y="0" width="65" height="108" filterUnits="userSpaceOnUse" color-interpolation-filters="sRGB">
<feFlood flood-opacity="0" result="BackgroundImageFix"/>
<feColorMatrix in="SourceAlpha" type="matrix" values="0 0 0 0 0 0 0 0 0 0 0 0 0 0 0 0 0 0 127 0"/>
<feOffset dy="4"/>
<feGaussianBlur stdDeviation="2"/>
<feColorMatrix type="matrix" values="0 0 0 0 0 0 0 0 0 0 0 0 0 0 0 0 0 0 0.25 0"/>
<feBlend mode="normal" in2="BackgroundImageFix" result="effect1_dropShadow"/>
<feBlend mode="normal" in="SourceGraphic" in2="effect1_dropShadow" result="shape"/>
</filter>
</defs>
</svg>
